<mxfile host="app.diagrams.net" agent="Mozilla/5.0 (Windows NT 10.0; Win64; x64) AppleWebKit/537.36 (KHTML, like Gecko) Chrome/130.0.0.0 Safari/537.36 OPR/115.0.0.0" version="26.0.8">
  <diagram name="Page-1" id="EKQFHMV7Wk8DR-e8Jfej">
    <mxGraphModel grid="1" page="1" gridSize="10" guides="1" tooltips="1" connect="1" arrows="1" fold="1" pageScale="1" pageWidth="827" pageHeight="1169" math="0" shadow="0">
      <root>
        <mxCell id="0" />
        <mxCell id="1" parent="0" />
        <mxCell id="gBjUjEZHSeIxfaiCBIiq-2" style="edgeStyle=orthogonalEdgeStyle;rounded=0;orthogonalLoop=1;jettySize=auto;html=1;entryX=0.5;entryY=0;entryDx=0;entryDy=0;" edge="1" parent="1" source="9sy9jl2LejdNVB4L9zra-1" target="gBjUjEZHSeIxfaiCBIiq-1">
          <mxGeometry relative="1" as="geometry" />
        </mxCell>
        <mxCell id="9sy9jl2LejdNVB4L9zra-1" value="Start" style="ellipse;whiteSpace=wrap;html=1;" vertex="1" parent="1">
          <mxGeometry x="370" y="-70" width="120" height="80" as="geometry" />
        </mxCell>
        <mxCell id="9sy9jl2LejdNVB4L9zra-5" style="edgeStyle=orthogonalEdgeStyle;rounded=0;orthogonalLoop=1;jettySize=auto;html=1;exitX=0.5;exitY=1;exitDx=0;exitDy=0;entryX=0.5;entryY=0;entryDx=0;entryDy=0;" edge="1" parent="1" source="9sy9jl2LejdNVB4L9zra-2" target="9sy9jl2LejdNVB4L9zra-4">
          <mxGeometry relative="1" as="geometry" />
        </mxCell>
        <mxCell id="9sy9jl2LejdNVB4L9zra-19" style="edgeStyle=orthogonalEdgeStyle;rounded=0;orthogonalLoop=1;jettySize=auto;html=1;entryX=0;entryY=0.5;entryDx=0;entryDy=0;" edge="1" parent="1" source="9sy9jl2LejdNVB4L9zra-2" target="9sy9jl2LejdNVB4L9zra-12">
          <mxGeometry relative="1" as="geometry">
            <mxPoint x="125" y="280" as="targetPoint" />
            <Array as="points">
              <mxPoint x="120" y="240" />
              <mxPoint x="120" y="1080" />
            </Array>
          </mxGeometry>
        </mxCell>
        <mxCell id="9sy9jl2LejdNVB4L9zra-2" value="Check if dbName exists in the databases map:&lt;br&gt;dbName in databases?" style="rhombus;whiteSpace=wrap;html=1;" vertex="1" parent="1">
          <mxGeometry x="245" y="160" width="370" height="160" as="geometry" />
        </mxCell>
        <mxCell id="9sy9jl2LejdNVB4L9zra-7" style="edgeStyle=orthogonalEdgeStyle;rounded=0;orthogonalLoop=1;jettySize=auto;html=1;exitX=0.5;exitY=1;exitDx=0;exitDy=0;entryX=0.5;entryY=0;entryDx=0;entryDy=0;" edge="1" parent="1" source="9sy9jl2LejdNVB4L9zra-4" target="9sy9jl2LejdNVB4L9zra-6">
          <mxGeometry relative="1" as="geometry" />
        </mxCell>
        <mxCell id="gBjUjEZHSeIxfaiCBIiq-5" style="edgeStyle=orthogonalEdgeStyle;rounded=0;orthogonalLoop=1;jettySize=auto;html=1;entryX=0;entryY=0.5;entryDx=0;entryDy=0;" edge="1" parent="1" source="9sy9jl2LejdNVB4L9zra-4" target="9sy9jl2LejdNVB4L9zra-12">
          <mxGeometry relative="1" as="geometry">
            <Array as="points">
              <mxPoint x="120" y="450" />
              <mxPoint x="120" y="1080" />
            </Array>
          </mxGeometry>
        </mxCell>
        <UserObject label="&lt;br&gt;Check if tableName exists in dbName&#39;s tables map:&amp;nbsp;&lt;br&gt;&amp;nbsp;tableName in databases[dbName].tables?" link="&#xa;Check if tableName exists in      | (Decision)&#xa;+-------------------------+ | dbName&#39;s tables map:              |&#xa;                            | if (databases[dbName].tables.     |&#xa;                            | find(tableName) == databases[     |&#xa;                            | dbName].tables.end())&#xa;&#xa;" id="9sy9jl2LejdNVB4L9zra-4">
          <mxCell style="rhombus;whiteSpace=wrap;html=1;" vertex="1" parent="1">
            <mxGeometry x="230" y="360" width="400" height="180" as="geometry" />
          </mxCell>
        </UserObject>
        <mxCell id="9sy9jl2LejdNVB4L9zra-9" style="edgeStyle=orthogonalEdgeStyle;rounded=0;orthogonalLoop=1;jettySize=auto;html=1;exitX=0.5;exitY=1;exitDx=0;exitDy=0;entryX=0.5;entryY=0;entryDx=0;entryDy=0;" edge="1" parent="1" source="9sy9jl2LejdNVB4L9zra-6" target="9sy9jl2LejdNVB4L9zra-8">
          <mxGeometry relative="1" as="geometry" />
        </mxCell>
        <mxCell id="9sy9jl2LejdNVB4L9zra-6" value="Reference table:&lt;div&gt;&amp;nbsp;Table &amp;amp;table =&amp;nbsp;&lt;/div&gt;&lt;div&gt;databases[dbName].tables[tableName];&lt;/div&gt;" style="rounded=0;whiteSpace=wrap;html=1;" vertex="1" parent="1">
          <mxGeometry x="310" y="570" width="240" height="100" as="geometry" />
        </mxCell>
        <mxCell id="9sy9jl2LejdNVB4L9zra-11" style="edgeStyle=orthogonalEdgeStyle;rounded=0;orthogonalLoop=1;jettySize=auto;html=1;exitX=0.5;exitY=1;exitDx=0;exitDy=0;entryX=0.5;entryY=0;entryDx=0;entryDy=0;" edge="1" parent="1" source="9sy9jl2LejdNVB4L9zra-8" target="9sy9jl2LejdNVB4L9zra-10">
          <mxGeometry relative="1" as="geometry" />
        </mxCell>
        <mxCell id="9sy9jl2LejdNVB4L9zra-15" style="edgeStyle=orthogonalEdgeStyle;rounded=0;orthogonalLoop=1;jettySize=auto;html=1;exitX=0;exitY=0.5;exitDx=0;exitDy=0;entryX=0;entryY=0.5;entryDx=0;entryDy=0;" edge="1" parent="1" source="9sy9jl2LejdNVB4L9zra-8" target="9sy9jl2LejdNVB4L9zra-12">
          <mxGeometry relative="1" as="geometry">
            <mxPoint x="175" y="910" as="targetPoint" />
            <Array as="points">
              <mxPoint x="120" y="795" />
              <mxPoint x="120" y="1080" />
            </Array>
          </mxGeometry>
        </mxCell>
        <mxCell id="9sy9jl2LejdNVB4L9zra-8" value="Check if values.size() matches table.columns.size():&lt;div&gt;&amp;nbsp;values.size() == table.columns.size()?&amp;nbsp;&amp;nbsp;&lt;/div&gt;" style="rhombus;whiteSpace=wrap;html=1;" vertex="1" parent="1">
          <mxGeometry x="272.5" y="710" width="315" height="170" as="geometry" />
        </mxCell>
        <mxCell id="9sy9jl2LejdNVB4L9zra-13" style="edgeStyle=orthogonalEdgeStyle;rounded=0;orthogonalLoop=1;jettySize=auto;html=1;entryX=0.5;entryY=0;entryDx=0;entryDy=0;" edge="1" parent="1" source="9sy9jl2LejdNVB4L9zra-10" target="9sy9jl2LejdNVB4L9zra-12">
          <mxGeometry relative="1" as="geometry" />
        </mxCell>
        <mxCell id="9sy9jl2LejdNVB4L9zra-10" value="Insert row: table.rows.push_back(values);" style="rounded=0;whiteSpace=wrap;html=1;" vertex="1" parent="1">
          <mxGeometry x="325" y="910" width="210" height="100" as="geometry" />
        </mxCell>
        <mxCell id="9sy9jl2LejdNVB4L9zra-12" value="End" style="ellipse;whiteSpace=wrap;html=1;" vertex="1" parent="1">
          <mxGeometry x="370" y="1040" width="120" height="80" as="geometry" />
        </mxCell>
        <mxCell id="9sy9jl2LejdNVB4L9zra-20" value="False" style="text;html=1;align=center;verticalAlign=middle;resizable=0;points=[];autosize=1;strokeColor=none;fillColor=none;" vertex="1" parent="1">
          <mxGeometry x="160" y="210" width="50" height="30" as="geometry" />
        </mxCell>
        <mxCell id="9sy9jl2LejdNVB4L9zra-21" value="True" style="text;html=1;align=center;verticalAlign=middle;resizable=0;points=[];autosize=1;strokeColor=none;fillColor=none;" vertex="1" parent="1">
          <mxGeometry x="430" y="320" width="50" height="30" as="geometry" />
        </mxCell>
        <mxCell id="9sy9jl2LejdNVB4L9zra-22" value="False" style="text;html=1;align=center;verticalAlign=middle;resizable=0;points=[];autosize=1;strokeColor=none;fillColor=none;" vertex="1" parent="1">
          <mxGeometry x="160" y="420" width="50" height="30" as="geometry" />
        </mxCell>
        <mxCell id="9sy9jl2LejdNVB4L9zra-23" value="True" style="text;html=1;align=center;verticalAlign=middle;resizable=0;points=[];autosize=1;strokeColor=none;fillColor=none;" vertex="1" parent="1">
          <mxGeometry x="425" y="538" width="50" height="30" as="geometry" />
        </mxCell>
        <mxCell id="9sy9jl2LejdNVB4L9zra-24" value="False" style="text;html=1;align=center;verticalAlign=middle;resizable=0;points=[];autosize=1;strokeColor=none;fillColor=none;" vertex="1" parent="1">
          <mxGeometry x="160" y="770" width="50" height="30" as="geometry" />
        </mxCell>
        <mxCell id="9sy9jl2LejdNVB4L9zra-25" value="True" style="text;html=1;align=center;verticalAlign=middle;resizable=0;points=[];autosize=1;strokeColor=none;fillColor=none;" vertex="1" parent="1">
          <mxGeometry x="425" y="878" width="50" height="30" as="geometry" />
        </mxCell>
        <mxCell id="gBjUjEZHSeIxfaiCBIiq-3" style="edgeStyle=orthogonalEdgeStyle;rounded=0;orthogonalLoop=1;jettySize=auto;html=1;entryX=0.5;entryY=0;entryDx=0;entryDy=0;" edge="1" parent="1" source="gBjUjEZHSeIxfaiCBIiq-1" target="9sy9jl2LejdNVB4L9zra-2">
          <mxGeometry relative="1" as="geometry" />
        </mxCell>
        <mxCell id="gBjUjEZHSeIxfaiCBIiq-1" value="Input &lt;code&gt;dbName&lt;/code&gt;, &lt;code&gt;tableName&lt;/code&gt;, &lt;code&gt;values&lt;/code&gt;" style="shape=parallelogram;perimeter=parallelogramPerimeter;whiteSpace=wrap;html=1;fixedSize=1;" vertex="1" parent="1">
          <mxGeometry x="317.5" y="50" width="225" height="60" as="geometry" />
        </mxCell>
      </root>
    </mxGraphModel>
  </diagram>
</mxfile>
